<svg xmlns="http://www.w3.org/2000/svg" viewBox="0 0 600 600" role="img" aria-label="ImproTrack icon">
  <defs>
    <linearGradient id="brand-gradient" x1="0" y1="300" x2="600" y2="300" gradientUnits="userSpaceOnUse">
      <stop offset="0%" stop-color="#6D28D9" />
      <stop offset="100%" stop-color="#C026D3" />
    </linearGradient>
  </defs>
  <path
    fill="url(#brand-gradient)"
    d="M462,0H138C61.8,0,0,61.8,0,138v324c0,76.2,61.8,138,138,138h324c76.2,0,138-61.8,138-138V138C600,61.8,538.2,0,462,0z"
  />
  <path
    fill="#FFFFFF"
    d="M505.4,219.6L472.8,187c-8-8-21.1-8-29.1,0l-100,100v-82.6h-.2c-.7-7.9-3.5-15.7-8.5-22.4-7.9-10.9-20.8-18-35.3-18H109.3c-11.4,0-20.6,9.2-20.6,20.6v46.2c0,11.4,9.2,20.6,20.6,20.6h85.6L94.7,351.6c-8,8-8,21.1,0,29.1l32.6,32.6c8,8,21.1,8,29.1,0l99.8-99.8v82.9h.2c2.1,22.2,20.8,39.6,43.5,39.6h190.8c11.4,0,20.6-9.2,20.6-20.6v-46.2c0-11.4-9.2-20.6-20.6-20.6h-85.2l99.9-99.9c8-8,8-21.1,0-29.1z"
  />
</svg>
